<svg width="219" height="240" viewBox="0 0 219 240" fill="none" xmlns="http://www.w3.org/2000/svg">
<path fill-rule="evenodd" clip-rule="evenodd" d="M110.072 0.719624C95.4193 2.57099 82.6367 6.27441 69.8253 12.381C34.2008 29.362 9.38674 61.1553 1.58813 99.8107C0.200834 106.688 -0.0147029 109.864 0.000742629 123.214C0.0161882 136.61 0.230322 139.637 1.61551 146.031C6.25831 167.459 15.7496 185.725 30.5191 201.655C54.3579 227.369 90.4437 241.721 126.511 239.835C155.453 238.32 178.017 229.075 196.711 211.069C205.465 202.638 212.951 193.27 218.201 184.178C218.482 183.692 217.624 182.712 216.086 181.762C213.605 180.229 213.469 180.216 212.747 181.46C207.768 190.036 195.639 202.5 186.195 208.745C169.748 219.622 148.862 226.203 134.128 225.153C125.408 224.531 121.543 222.559 118.72 217.291C117.261 214.569 117.209 213.587 117.004 185.171C116.833 161.499 116.969 155.847 117.706 155.792C123.037 155.397 162.099 156.11 164.118 156.639C170.28 158.255 174.434 164.776 174.434 172.837C174.434 176.128 174.491 176.22 176.54 176.22H178.646V125.671H176.54C174.439 125.671 174.434 125.681 174.434 129.795C174.434 137.455 171.8 142.177 166.009 144.898C163.029 146.298 161.549 146.395 139.857 146.601L116.864 146.82V88.3887L145.825 88.6063C174.431 88.8205 174.844 88.8443 179.629 90.5307C187.753 93.3938 193.598 100.365 195.565 109.538C196.265 112.802 196.457 113.034 198.453 113.034H200.592L200.168 106.89C199.935 103.512 199.538 96.2456 199.285 90.7427L198.827 80.7382H72.6336V82.7483C72.6336 84.7176 72.7269 84.766 77.2139 85.1262C80.2756 85.3719 83.1267 86.1603 85.8143 87.5041C89.1659 89.1799 90.1257 90.0975 91.5895 93.0245L93.3447 96.5348V154.456C93.3447 186.312 93.1017 213.246 92.8048 214.307C92.5078 215.37 91.8549 216.238 91.3536 216.238C90.8523 216.238 87.7449 214.63 84.448 212.665C63.5038 200.18 48.8755 178.397 43.7573 152.073C39.441 129.874 41.1548 97.1126 47.8385 74.0685C58.1288 38.5873 83.9088 16.5647 118.925 13.3436C149.045 10.5725 177.47 22.3196 194.176 44.4425C200.679 53.0527 204.914 62.9042 207.743 75.9992C208.113 77.713 208.475 77.9299 210.961 77.9299H213.762L213.381 74.2441C212.898 69.5711 208.133 3.53072 208.133 1.50735C208.133 0.188859 207.737 0 204.974 0C202.436 0 201.813 0.241513 201.808 1.22863C201.794 3.68447 198.456 9.53975 195.604 12.1107C191.395 15.9061 188.836 15.739 176.107 10.8386C164.269 6.28144 153.755 3.03505 146.351 1.65197C139.881 0.443005 116.93 -0.146732 110.072 0.719624ZM143.192 166.629C136.112 168.974 130.703 174.059 128.096 180.819C126.003 186.25 125.806 195.158 127.654 200.865C131.48 212.689 143.752 219.207 153.938 214.825C158.694 212.78 164.01 207.027 165.959 201.817C167.676 197.23 167.735 196.58 166.436 196.58C165.899 196.58 165.263 197.364 165.022 198.323C164.781 199.281 163.565 201.226 162.319 202.645C155.95 209.9 144.703 209.424 138.842 201.653C136.267 198.238 135.263 195.246 134.663 189.205C133.64 178.891 138.632 169.797 145.649 169.194C151.845 168.662 155 170.611 155.822 175.478C156.392 178.85 158.469 181.134 160.965 181.134C163.941 181.134 166.01 179.317 166.006 176.706C166 171.037 159.424 166.328 150.962 165.931C148.079 165.796 144.823 166.088 143.192 166.629Z" fill="#004AAD"/>
</svg>
